<?xml version="1.0" encoding="utf-8"?>
<!-- Generator: Adobe Illustrator 24.1.0, SVG Export Plug-In . SVG Version: 6.00 Build 0)  -->
<svg version="1.1" id="Layer_1" xmlns="http://www.w3.org/2000/svg" xmlns:xlink="http://www.w3.org/1999/xlink" x="0px" y="0px"
	 viewBox="0 0 54.3 125.7" style="enable-background:new 0 0 54.3 125.7;" xml:space="preserve">
<style type="text/css">
	.st0{fill:#FFFFFF;stroke:#000000;stroke-width:2;stroke-miterlimit:10;}
	.st1{fill:none;stroke:#000000;stroke-miterlimit:10;}
	.eyes {
		animation: blink-animation 5s steps(20, start) infinite;
		-webkit-animation: blink-animation 5s steps(20, start) infinite;
	}
	@keyframes blink-animation {
		to {
			visibility: hidden;
		}
	}
	@-webkit-keyframes blink-animation {
		to {
			visibility: hidden;
		}
	}

</style>
<path class="st0" d="M34.6,97.9c1.8-5.5,2.9-12.5,0.1-19.1c-0.8-1.9-1.2-2-1.9-4c-2.6-7.1-0.1-12.4,0.6-20c0.3-3.5,0.3-8.8-1.5-15.4
	"/>
<path class="eyes" d="M13.5,69.4c-0.1,1.2,2,1.7,1.9,0C15.4,68.2,13.5,68,13.5,69.4 M16.2,68.4c0,0,0,0.2,0,0.1c0.1,0.6,0.4,1,1,1.1
	c0.5,0.1,1-0.2,1.1-0.7C18.5,67.9,16.3,67,16.2,68.4"/>
<path d="M30.3,96.2c0,0,0.3,2.7,0.4,6.1c0.1,2,0,3.9-0.1,5.7c-0.1,1.9-0.4,3.8-0.8,5.6c-1.4,5.9-2,7.5-2,7.6s-0.2,0.8-0.7-0.6
	c0,0-1.5-3.3-2.9-6.8c-0.8-2-1.4-3.8-2-5.5c-0.6-1.8-1-3.6-1.3-5.4c0-0.1,0-0.1,0-0.2c-0.2-0.4-0.6-0.7-1-0.7l0,0
	c-0.8,0-1.1,0.8-1.3,1.2c-0.2,0.6-1.1,3.6-1.9,6.2c-0.6,2.1-1.6,5.8-1.9,7c-0.2,1-0.5,2.3-0.8,1.4c-1.3-2.5-2.5-5.2-3.5-7.8
	c-0.7-1.7-1.2-3.4-1.7-5.2c-0.4-1.3-0.6-2.8-0.6-4.2c0-0.4-0.3-0.8-0.7-0.9c-0.4-0.1-0.8,0.1-1,0.5c0,0-0.3,0.5-0.6,1.1
	c-0.4,0.6-0.7,0.4-0.8,0.1c-0.2-0.9-0.4-1.8-0.5-2.7c-0.3-2.4-0.5-4.9-0.5-7.3v-0.1c0-1.6,0.2-3.2,0.8-4.8c0.5-1.6,1.2-3.2,2.2-4.6
	c1.2-1.9,2.7-3.5,4.4-4.9c0.1-0.1,0.1-0.1,0.2-0.2l0.1-0.2c0.2-0.2,0.3-0.4,0.4-0.7c0.1-0.3,0-0.7-0.1-1l0,0c0,0-0.4-1-0.8-2.3
	c-0.4-1.1-0.5-2.2-0.4-3.4c0.4-1.8,1.8-3.1,3.6-3.4c0.4-0.1,0.7-0.1,1.1-0.1l0,0c0.8,0,1.6,0.3,2.2,0.8c1,1.1,1.7,2.3,2,3.7
	c0.1,0.2,0.3,0.5,0.5,0.6c1.2,0.6,2.4,1.3,3.5,2.2c1.1,0.9,2.2,1.8,3.1,2.9c1.2,1.3,2.1,2.7,2.9,4.2c0.8,1.5,1.4,3.1,1.9,4.7
	c0.6,1.9,1.1,3.8,1.5,5.8c0.3,1.6,0.5,3.3,0.5,5c0,0.5-0.1,1.1-0.2,1.6c0,0.5-0.6,0-1-0.6s-0.8-1-0.8-1c-0.2-0.3-0.5-0.5-0.8-0.5
	c-0.1,0-0.2,0-0.3,0.1C30.5,95.4,30.3,95.8,30.3,96.2 M35.5,90.3c-0.7-3.8-1.9-7.5-3.5-11.1c-0.9-1.7-2-3.2-3.2-4.7
	c-1-1.2-2.2-2.2-3.4-3.1c-1.1-0.8-2.2-1.5-3.4-2.2c-0.4-1.6-1.3-3-2.4-4.2c-1-0.9-2.2-1.4-3.6-1.4c-0.5,0-1.1,0.1-1.6,0.2
	c-1.3,0.3-2.4,0.9-3.4,1.8c-0.9,0.8-1.5,1.9-1.8,3.1c-0.2,1.5,0,3,0.4,4.4c0.3,1,0.6,1.9,0.7,2.3l0,0c-1.9,1.5-3.5,3.3-4.8,5.3
	c-1,1.6-1.8,3.3-2.4,5.1c-0.6,1.7-0.8,3.6-0.8,5.4c0,2.8,0.2,5.5,0.6,8.2c0.1,1,0.3,2,0.6,2.9c0.1,0.4,0.3,0.7,0.5,1
	c0.3,0.5,0.8,0.8,1.3,0.8c0.5,0,1-0.2,1.4-0.6c0.5,2.4,1.2,4.7,2.1,6.9c1,2.8,2.2,5.4,3.6,8.1c0.2,0.4,0.9,1.7,2.1,1.7
	c0.6,0,1.3-0.3,1.9-1.5c0.3-0.7,0.5-1.4,0.6-2.2c0.2-1.4,1.8-6.7,2.8-10c0.7,2.7,1.6,5.3,2.6,7.8c1.4,3.5,2.7,6.3,2.9,6.8l0.1,0.1
	c0.2,0.5,0.5,0.9,0.8,1.3c0.4,0.6,1,0.9,1.7,0.9c0.8,0,1.5-0.5,1.7-1.2c0.1-0.2,0.2-0.5,0.2-0.8c0.1-0.4,0.7-2.2,2-7.7
	c0.8-3.9,1.1-7.9,0.9-11.9c0-0.9-0.1-1.8-0.1-2.7c0.3,0.2,0.6,0.3,1,0.3c0.3,0,0.6-0.1,0.8-0.2c1-0.6,1.5-1.8,1.5-3.8
	C36,93.9,35.8,92.1,35.5,90.3"/>
<path class="st0" d="M48.3,22.4c-1.1,10.8-7.1,19.7-15.8,19.7s-13-8.5-15.8-19.7C14,11.8,23.7,2.7,32.5,2.7S49.5,11.6,48.3,22.4z"/>
<line class="st1" x1="32.6" y1="42.1" x2="30.9" y2="45.7"/>
<line class="st1" x1="33.3" y1="42.4" x2="35.3" y2="45.7"/>
</svg>
